<svg class="logo" xmlns="http://www.w3.org/2000/svg" viewBox="0 0 55 35"><path d="M41.8 2.9c2.1 0 4 .8 5.5 2.3v-.3c0-1.2.7-1.9 2-1.9.6 0 1.1.2 1.5.6.4.4.6.9.6 1.5 0 .3 0 .7-.1 1.3-.1.9-.1 1.6-.1 2 0 .3 0 .7.1 1.3.1.6.1 1 .1 1.3 0 .7-.3 1.2-.8 1.7-.5.4-1.2.6-2 .6-1.7 0-2.5-.7-2.5-2.1v-1c0-.7-.3-1.3-.9-1.8-.6-.5-1.4-.7-2.3-.7-2.9 0-4.4 2.4-4.4 7.1 0 2.4.4 4.2 1.1 5.3.7 1.1 1.9 1.7 3.4 1.7 1 0 1.8-.2 2.4-.7.6-.5.9-1 .9-1.8V18c0-.7.2-1.2.7-1.7.5-.4 1.1-.6 1.8-.6.9 0 1.7.3 2.2.9.5.6.8 1.5.8 2.5 0 2.1-.8 3.8-2.5 5.2-1.7 1.3-3.8 2-6.5 2-3.2 0-5.8-1-7.7-3.1-1.9-2.1-2.8-4.9-2.8-8.5 0-3.7.8-6.6 2.5-8.7 1.8-2 4-3.1 7-3.1zM26.2 3.8c1.1 0 2.1.4 3 1.2v-.2c0-.7.4-1 1.1-1 .3 0 .6.1.8.3.2.2.3.5.3.8v.7c-.1.5-.1.8-.1 1.1 0 .2 0 .4.1.7 0 .3.1.5.1.7 0 .4-.1.7-.4.9-.3.2-.6.3-1 .3-.9 0-1.4-.4-1.3-1.1v-.6c0-.4-.1-.7-.5-1-.3-.3-.7-.4-1.3-.4-1.6 0-2.4 1.3-2.4 3.8 0 1.3.2 2.3.6 2.9.4.6 1 .9 1.8.9.5 0 1-.1 1.3-.4.3-.2.5-.6.5-1v-.6c0-.4.1-.7.4-.9.2-.2.6-.3 1-.3.5 0 .9.2 1.2.5.3.3.4.8.4 1.4 0 1.1-.4 2.1-1.3 2.8-.9.7-2.1 1.1-3.5 1.1-1.7 0-3.1-.6-4.1-1.7-1-1.1-1.5-2.6-1.5-4.5 0-2 .4-3.5 1.3-4.7.7-1.1 1.9-1.7 3.5-1.7zM10.2 8.9c1.7 0 3.2.7 4.7 2V8.4c0-.8-.3-1.2-.8-1.2-.1 0-.4 0-.8.1-.3.1-.6.2-.9.2-.4 0-.8-.2-1.1-.5-.3-.4-.4-.8-.4-1.3 0-1.4.8-2.1 2.3-2.1h1.1c.9.1 1.5.1 1.8.1.3 0 .7 0 1.3-.1.6-.1 1-.1 1.2-.1.6 0 .9.1 1.1.4.2.2.3.7.3 1.4v15.2c0 1.1.2 1.7.6 1.7.1 0 .3 0 .5-.1.1-.1.3-.1.5-.1 1 0 1.4.6 1.4 1.7 0 .7-.2 1.2-.5 1.7-.3.4-.8.6-1.3.6H21l-1.2-.2c-.3 0-.6-.1-1.1-.1-.6 0-1.1 0-1.4.1-.6.1-.9.1-.9.1-.7 0-1-.4-1-1.2v-1.2c-1.2 2-2.9 3-5.2 3-2 0-3.7-.8-5-2.5-1.3-1.7-2-3.8-2-6.3 0-2.6.6-4.7 1.9-6.3 1.3-1.7 3-2.5 5.1-2.5zm1.2 4.2c-.8 0-1.5.4-2 1.2-.5.8-.8 1.8-.9 3.2v.4c0 1.4.3 2.4.8 3.2.5.8 1.2 1.2 2.1 1.2 1 0 1.8-.4 2.4-1.3.6-.8.9-2 .9-3.4s-.3-2.4-.9-3.3c-.6-.8-1.4-1.2-2.4-1.2zM28.8 22.4c-.6.6-1.3.9-2.1.9s-1.5-.3-2.1-.9c-.6-.6-.9-1.3-.9-2.1s.3-1.5.9-2.1c.6-.6 1.3-.9 2.1-.9s1.5.3 2.1.9c.6.6.9 1.3.9 2.1-.1.8-.3 1.5-.9 2.1zM3.2 27.7h.4v1.2c.1-.2.3-.4.6-.4.7 0 .8.8.8 1.4 0 .7-.3 1.4-.9 1.4-.3 0-.5-.2-.6-.4v.3h-.3v-3.5zm.9 3.2c.4 0 .5-.4.5-1s-.1-1-.5-1-.5.5-.5 1 .1 1 .5 1zM5.3 28.6h.4v.4c.1-.2.3-.5.6-.5h.2v.4h-.2c-.2 0-.5.2-.5.6v1.7h-.5v-2.6zM6.7 29.4c0-.6.3-.9.9-.9.8 0 .8.5.8.8v1.5c0 .1 0 .2.1.2h.1v.3h-.2c-.2 0-.4 0-.4-.3-.1.2-.4.4-.6.4-.5 0-.7-.3-.7-.8 0-.4.2-.6.5-.7l.6-.2c.2-.2.2-.3.2-.5s-.1-.4-.4-.4c-.5 0-.5.4-.5.5h-.4zm1.2.4c-.2.2-.5.2-.7.3-.1.1-.2.2-.2.4 0 .3.1.5.4.5.3 0 .5-.2.5-.5v-.7zM8.8 28.6h.4v.3c.1-.2.4-.4.6-.4.7 0 .7.5.7.8v1.9h-.4v-1.8c0-.2 0-.5-.4-.5-.2 0-.5.1-.5.5v1.8h-.4v-2.6zM12.7 31.2h-.4v-.3c-.1.2-.3.4-.6.4-.6 0-.9-.6-.9-1.4 0-.5.1-1.4.8-1.4.2 0 .5.1.6.4v-1.2h.4v3.5zm-.9-.3c.5 0 .5-.4.5-1 0-.5-.1-1-.5-1s-.5.4-.5 1 .1 1 .5 1zM14.3 28.6h.4v.3c.1-.2.4-.4.6-.4.3 0 .5.1.6.4.1-.2.4-.4.6-.4.7 0 .7.5.7.8v1.9h-.4v-1.8c0-.2 0-.5-.4-.5-.2 0-.5.1-.5.5v1.8h-.4v-1.8c0-.2 0-.5-.4-.5-.2 0-.5.1-.5.5v1.8h-.4v-2.6zM17.6 29.4c0-.6.3-.9.9-.9.8 0 .8.5.8.8v1.5c0 .1 0 .2.1.2h.1v.3h-.2c-.2 0-.4 0-.4-.3-.1.2-.4.4-.6.4-.5 0-.7-.3-.7-.8 0-.4.2-.6.5-.7l.6-.2c.3-.1.3-.2.3-.4s-.1-.4-.4-.4c-.5 0-.5.4-.5.5h-.5zm1.3.4c-.2.2-.5.2-.7.3-.1.1-.2.2-.2.4 0 .3.1.5.4.5.3 0 .5-.2.5-.5v-.7zM19.8 28.6h.4v.4c.1-.2.3-.5.6-.5h.2v.4h-.2c-.2 0-.5.2-.5.6v1.7h-.4v-2.6zM23.2 31.2h-.5l-.7-1.3-.3.4v.9h-.4v-3.5h.4v2.1l.9-1.2h.4l-.8 1 1 1.6zM23.6 29.9c0 .4 0 1 .5 1 .4 0 .4-.4.4-.6h.5c0 .3-.2.9-.9.9-.6 0-.9-.4-.9-1.3 0-.7.1-1.4.9-1.4s.9.7.9 1.3v.2h-1.4zm1-.3v-.1c0-.3-.1-.6-.5-.6s-.5.5-.5.7v.1h1zM25.5 27.8h.4v.8h.5v.3h-.5v1.7c0 .2.1.3.3.3h.2v.3h-.3c-.4 0-.5-.2-.5-.5v-1.8h-.4v-.3h.4v-.8zM26.6 27.7h.4v.5h-.4v-.5zm0 .9h.4v2.6h-.4v-2.6zM27.5 28.6h.4v.3c.1-.2.4-.4.6-.4.7 0 .7.5.7.8v1.9h-.4v-1.8c0-.2 0-.5-.4-.5-.2 0-.5.1-.5.5v1.8h-.4v-2.6zM31.4 31c0 .8-.4 1.1-.9 1.1-.2 0-.8 0-.9-.7h.4c0 .2.2.3.4.3.5 0 .5-.4.5-.6v-.3c-.1.2-.3.4-.6.4-.8 0-.8-1-.8-1.3 0-.7.2-1.4.9-1.4.3 0 .5.2.6.4v-.3h.4V31zM30 29.9c0 .4.1 1 .5 1s.5-.4.5-1c0-.5-.1-1-.5-1s-.5.4-.5 1zM32.9 30.1h-1.1v-.3h1.1v-1.1h.3v1.1h1.1v.3h-1.1v1.1h-.3v-1.1zM34.8 27.7h.4v.5h-.4v-.5zm0 .9h.4v2.6h-.4v-2.6zM35.6 28.6h.4v.3c.1-.2.4-.4.6-.4.7 0 .7.5.7.8v1.9h-.4v-1.8c0-.2 0-.5-.4-.5-.2 0-.5.1-.5.5v1.8h-.4v-2.6zM37.7 28.6h.4v.3c.1-.2.4-.4.6-.4.7 0 .7.5.7.8v1.9H39v-1.8c0-.2 0-.5-.4-.5-.2 0-.5.1-.5.5v1.8h-.4v-2.6zM40.7 28.5c.8 0 .9.6.9 1.4 0 .7-.2 1.4-.9 1.4-.8 0-.9-.6-.9-1.4-.1-.8.1-1.4.9-1.4zm.5 1.4c0-.6-.1-1.1-.5-1.1s-.5.5-.5 1.1c0 .6.1 1.1.5 1.1.4-.1.5-.5.5-1.1zM41.7 28.6h.5l.5 2.1.5-2.1h.5l-.7 2.6h-.5l-.8-2.6zM43.8 29.4c0-.6.3-.9.9-.9.8 0 .8.5.8.8v1.5c0 .1 0 .2.1.2h.1v.3h-.2c-.2 0-.4 0-.4-.3-.1.2-.4.4-.6.4-.5 0-.7-.3-.7-.8 0-.4.2-.6.5-.7l.6-.2c.3-.1.3-.2.3-.4s-.1-.4-.4-.4c-.5 0-.5.4-.5.5h-.5zm1.2.4c-.2.2-.5.2-.7.3-.1.1-.2.2-.2.4 0 .3.1.5.4.5.3 0 .5-.2.5-.5v-.7zM46.1 27.8h.4v.8h.5v.3h-.5v1.7c0 .2.1.3.3.3h.2v.3h-.3c-.4 0-.5-.2-.5-.5v-1.8h-.4v-.3h.4v-.8zM47.2 27.7h.4v.5h-.4v-.5zm0 .9h.4v2.6h-.4v-2.6zM48.9 28.5c.8 0 .9.6.9 1.4 0 .7-.2 1.4-.9 1.4-.8 0-.9-.6-.9-1.4 0-.8.2-1.4.9-1.4zm.5 1.4c0-.6-.1-1.1-.5-1.1s-.5.5-.5 1.1c0 .6.1 1.1.5 1.1.4-.1.5-.5.5-1.1zM50.1 28.6h.4v.3c.1-.2.4-.4.6-.4.7 0 .7.5.7.8v1.9h-.4v-1.8c0-.2 0-.5-.4-.5-.2 0-.5.1-.5.5v1.8h-.4v-2.6z"/></svg>
